<?xml version="1.0" encoding="utf-8"?>
<!-- Generator: Adobe Illustrator 15.1.0, SVG Export Plug-In . SVG Version: 6.00 Build 0)  -->
<!DOCTYPE svg PUBLIC "-//W3C//DTD SVG 1.1//EN" "http://www.w3.org/Graphics/SVG/1.1/DTD/svg11.dtd">
<svg version="1.1" id="Ebene_1" xmlns="http://www.w3.org/2000/svg" xmlns:xlink="http://www.w3.org/1999/xlink" x="0px" y="0px"
	 width="131.801px" height="67.588px" viewBox="0 0 131.801 67.588" enable-background="new 0 0 131.801 67.588"
	 xml:space="preserve">
<g>
	<g>
		<g>
			<polygon fill="#EC621D" points="7.877,43.973 19.667,16.189 35.728,16.203 31.208,26.984 44.676,16.18 55.672,16.18 
				42.521,27.17 50.136,37.16 59.767,12.934 36.895,12.934 38.741,7.877 100.672,7.877 99.225,12.934 76.142,12.934 69.634,31.742 
				85.157,16.189 99.384,16.189 97.124,26.803 109.088,16.203 123.924,16.203 117.779,44.002 103.031,44.002 104.567,34.023 
				93.302,43.977 79.61,44.002 81.4,33.918 70.595,43.988 35.659,43.977 28.156,34.023 24.083,43.977 			"/>
		</g>
		<path d="M21.71,57.576c0,1.475-0.615,2.133-2.1,2.133h-1.901v-7.695h1.615c1.595,0,2.231,0.639,2.231,2.002
			c0,0.779-0.362,1.473-1.177,1.584C21.39,55.762,21.71,56.533,21.71,57.576z M19.532,55.268c0.671,0,1.231-0.209,1.231-1.252
			c0-0.957-0.372-1.254-1.439-1.254H18.5v2.506H19.532z M19.532,56.016H18.5v2.945h1.11c0.957,0,1.309-0.395,1.309-1.385
			C20.919,56.258,20.313,56.016,19.532,56.016z M25.835,59.709h-0.791v-7.695h0.791V59.709z M33.444,52.014l-1.902,2.848
			l2.178,4.846h-0.902l-1.77-4.043l-0.968,1.375v2.67h-0.792v-7.695h0.792v3.65l2.396-3.65H33.444z M37.338,58.961h2.891v0.746
			h-3.683v-7.693h3.464v0.746h-2.672v2.539h1.936v0.748h-1.936V58.961z M48.831,59.707h-0.793v-7.693h0.793V59.707z M56.33,52.014
			v7.693h-1.013l-2.242-6.012v6.012h-0.792v-7.693h1.013l2.242,6.057v-6.057H56.33z M61.477,52.014c1.529,0,2.255,0.713,2.255,2.67
			v2.65c0,1.727-0.901,2.373-2.255,2.373h-1.691v-7.693H61.477z M62.939,54.563c0-1.219-0.362-1.803-1.463-1.803h-0.899v6.201h0.899
			c1.045,0,1.463-0.473,1.463-1.627V54.563z M67.143,57.629v-5.615h0.79v5.615c0,0.98,0.396,1.484,1.221,1.484
			c0.825,0,1.221-0.504,1.221-1.484v-5.615h0.79v5.615c0,1.607-0.867,2.232-2.011,2.232C68.009,59.861,67.143,59.236,67.143,57.629z
			 M76.301,51.857c1.188,0,2.079,0.615,1.98,2.441h-0.78c0.044-1.342-0.43-1.693-1.2-1.693c-0.802,0-1.143,0.461-1.143,1.033
			c0,0.748,0.385,1.066,1.298,1.551c1.144,0.625,1.924,1.188,1.924,2.594c0,1.178-0.648,2.078-2.089,2.078
			c-1.33,0-1.989-0.682-1.989-2.363v-0.605h0.791v0.615c0,1.166,0.352,1.605,1.198,1.605c0.945,0,1.298-0.594,1.298-1.33
			c0-0.869-0.385-1.287-1.397-1.848c-1-0.561-1.825-0.945-1.825-2.297C74.366,52.65,75.005,51.857,76.301,51.857z M80.658,52.012
			h3.781v0.748h-1.495v6.947h-0.792V52.76h-1.494V52.012z M87.288,52.012h1.683c1.726,0,2.331,0.846,2.331,2.395v0.475
			c0,0.803-0.177,1.65-0.979,2.068l0.924,2.758h-0.858c-0.273-0.836-0.549-1.682-0.813-2.529c-0.176,0.035-0.386,0.043-0.605,0.043
			h-0.89v2.486h-0.793V52.012z M88.081,52.76v3.715h0.89c0.857,0,1.539-0.297,1.539-1.594v-0.475c0-1.295-0.637-1.646-1.539-1.646
			H88.081z M95.448,59.705h-0.791V52.01h0.791V59.705z M99.693,58.959h2.892v0.746h-3.683V52.01h3.463v0.748h-2.672v2.539h1.936
			v0.748h-1.936V58.959z M107.249,51.857c1.187,0,2.078,0.615,1.978,2.439h-0.78c0.044-1.342-0.428-1.693-1.197-1.693
			c-0.803,0-1.145,0.463-1.145,1.035c0,0.746,0.387,1.064,1.299,1.549c1.144,0.627,1.924,1.188,1.924,2.596
			c0,1.176-0.649,2.076-2.09,2.076c-1.33,0-1.989-0.68-1.989-2.363v-0.604h0.791v0.615c0,1.166,0.353,1.605,1.198,1.605
			c0.946,0,1.297-0.594,1.297-1.33c0-0.869-0.384-1.287-1.396-1.848c-0.999-0.561-1.824-0.945-1.824-2.297
			C105.313,52.648,105.951,51.857,107.249,51.857z"/>
	</g>
</g>
</svg>
